<svg viewBox="0 0 50 75" fill="transparent" xmlns="http://www.w3.org/2000/svg">
    <path d="M2.77783 14.4445H5.55561V31.1111H50V64.4445H47.2223V33.8889H2.77783V14.4445Z" fill="#33691E" />
    <path d="M49.9999 8.88892H0V11.6667H49.9999V8.88892Z" fill="#33691E" />
    <path d="M47.2222 58.8889H0V61.6667H47.2222V58.8889Z" fill="#33691E" />
    <path d="M15.5557 0H12.7778V74.9999H15.5557V0Z" fill="#64DD17" />
    <path d="M34.1668 3.05176e-05H31.3889V75H34.1668V3.05176e-05Z" fill="#64DD17" />
    <path d="M18.3333 0H15.5555V74.9999H18.3333V0Z" fill="#33691E" />
    <path d="M36.9445 3.05176e-05H34.1667V75H36.9445V3.05176e-05Z" fill="#33691E" />
    <path d="M0 11.6667H49.9999V14.4445H2.77777V33.8889H47.2221V64.4444H0V61.6666H44.7221V36.6666H0V11.6667Z" fill="#64DD17" />
</svg>
