<svg viewBox="0 0 490 490" fill="none" xmlns="http://www.w3.org/2000/svg">
    <rect width="490" height="490" fill="#656361" />
    <rect x="11" y="10" width="150" height="150" fill="#CECCCC" />
    <rect x="171" y="10" width="150" height="150" fill="#CECCCC" />
    <rect x="331" y="10" width="150" height="150" fill="#CECCCC" />
    <rect x="331" y="170" width="150" height="150" fill="#CECCCC" />
    <rect x="171" y="170" width="150" height="150" fill="#CECCCC" />
    <rect x="11" y="170" width="150" height="150" fill="#CECCCC" />
    <rect x="11" y="330" width="150" height="150" fill="#CECCCC" />
    <rect x="171" y="330" width="150" height="150" fill="#CECCCC" />
    <rect x="331" y="330" width="150" height="150" fill="#CECCCC" />
    <rect x="21" y="20" width="10" height="10" fill="#496B7B" />
    <rect x="141" y="20" width="10" height="10" fill="#496B7B" />
    <rect x="141" y="140" width="10" height="10" fill="#496B7B" />
    <rect x="21" y="140" width="10" height="10" fill="#496B7B" />
    <rect x="181" y="20" width="10" height="10" fill="#496B7B" />
    <rect x="301" y="20" width="10" height="10" fill="#496B7B" />
    <rect x="301" y="140" width="10" height="10" fill="#496B7B" />
    <rect x="181" y="140" width="10" height="10" fill="#496B7B" />
    <rect x="341" y="20" width="10" height="10" fill="#496B7B" />
    <rect x="461" y="20" width="10" height="10" fill="#496B7B" />
    <rect x="461" y="140" width="10" height="10" fill="#496B7B" />
    <rect x="461" y="180" width="10" height="10" fill="#496B7B" />
    <rect x="461" y="300" width="10" height="10" fill="#496B7B" />
    <rect x="341" y="300" width="10" height="10" fill="#496B7B" />
    <rect x="341" y="180" width="10" height="10" fill="#496B7B" />
    <rect x="301" y="180" width="10" height="10" fill="#496B7B" />
    <rect x="181" y="180" width="10" height="10" fill="#496B7B" />
    <rect x="181" y="300" width="10" height="10" fill="#496B7B" />
    <rect x="301" y="300" width="10" height="10" fill="#496B7B" />
    <rect x="141" y="300" width="10" height="10" fill="#496B7B" />
    <rect x="141" y="180" width="10" height="10" fill="#496B7B" />
    <rect x="21" y="180" width="10" height="10" fill="#496B7B" />
    <rect x="21" y="300" width="10" height="10" fill="#496B7B" />
    <rect x="21" y="340" width="10" height="10" fill="#496B7B" />
    <rect x="141" y="340" width="10" height="10" fill="#496B7B" />
    <rect x="141" y="460" width="10" height="10" fill="#496B7B" />
    <rect x="21" y="460" width="10" height="10" fill="#496B7B" />
    <rect x="181" y="340" width="10" height="10" fill="#496B7B" />
    <rect x="181" y="460" width="10" height="10" fill="#496B7B" />
    <rect x="301" y="460" width="10" height="10" fill="#496B7B" />
    <rect x="301" y="340" width="10" height="10" fill="#496B7B" />
    <rect x="341" y="340" width="10" height="10" fill="#496B7B" />
    <rect x="341" y="460" width="10" height="10" fill="#496B7B" />
    <rect x="461" y="460" width="10" height="10" fill="#496B7B" />
    <rect x="461" y="340" width="10" height="10" fill="#496B7B" />
    <rect x="341" y="140" width="10" height="10" fill="#496B7B" />
    <rect x="200" width="90" height="490" fill="#656361" />
    <rect x="210" width="70" height="490" fill="#767472" />
    <rect x="240" y="460" width="10" height="10" fill="#545250" />
    <rect x="250" y="450" width="10" height="10" fill="#545250" />
    <rect x="220" y="440" width="10" height="10" fill="#545250" />
    <rect x="230" y="450" width="10" height="10" fill="#545250" />
    <rect x="260" y="440" width="10" height="10" fill="#545250" />
    <rect x="229" y="30" width="10" height="10" fill="#545250" />
    <rect x="219" y="20" width="10" height="10" fill="#545250" />
    <rect x="259" y="20" width="10" height="10" fill="#545250" />
    <rect x="249" y="30" width="10" height="10" fill="#545250" />
    <rect x="239" y="40" width="10" height="10" fill="#545250" />
    <rect width="490" height="400" fill="#8E8E8E" />
    <rect x="159" y="150" width="190" height="190" fill="#FF2A00" />
    <path d="M149 290H139V340H189V260H179V190H169L170 150H159V220H149V290Z" fill="#212121" />
    <rect x="190" y="170" width="140" height="10" fill="#EEEEEE" />
    <rect x="200" y="190" width="120" height="10" fill="#EEEEEE" />
    <rect x="190" y="220" width="140" height="10" fill="#EEEEEE" />
    <rect x="201" y="240" width="120" height="10" fill="#EEEEEE" />
    <rect x="201" y="260" width="120" height="10" fill="#EEEEEE" />
    <rect x="211" y="310" width="120" height="10" fill="#EEEEEE" />
    <rect x="199" y="290" width="140" height="10" fill="#EEEEEE" />
    <path d="M179 150V130H189V110H199V100H209V110H199V130H189V150H179Z" fill="#FF2A00" />
    <path d="M199 150V130H209V110H219V100H229V110H219V130H209V150H199Z" fill="#FF2A00" />
    <path d="M329 150V130H319V110H309V100H299V110H309V130H319V150H329Z" fill="#FF2A00" />
    <rect x="209" y="90" width="90" height="10" fill="#FF2A00" />
    <rect x="15" y="15" width="460" height="370" stroke="#CC2200" stroke-width="10" />
    <rect x="5" y="5" width="480" height="390" stroke="#212121" stroke-width="10" />
    <rect x="200" y="390" width="90" height="10" fill="#494949" />
</svg>
