<svg viewBox="0 0 490 490" fill="none" xmlns="http://www.w3.org/2000/svg">
    <rect width="490" height="490" fill="#656361" />
    <rect x="11" y="10" width="150" height="150" fill="#CECCCC" />
    <rect x="171" y="10" width="150" height="150" fill="#CECCCC" />
    <rect x="331" y="10" width="150" height="150" fill="#CECCCC" />
    <rect x="331" y="170" width="150" height="150" fill="#CECCCC" />
    <rect x="171" y="170" width="150" height="150" fill="#CECCCC" />
    <rect x="11" y="170" width="150" height="150" fill="#CECCCC" />
    <rect x="11" y="330" width="150" height="150" fill="#CECCCC" />
    <rect x="171" y="330" width="150" height="150" fill="#CECCCC" />
    <rect x="331" y="330" width="150" height="150" fill="#CECCCC" />
    <rect x="21" y="20" width="10" height="10" fill="#496B7B" />
    <rect x="141" y="20" width="10" height="10" fill="#496B7B" />
    <rect x="141" y="140" width="10" height="10" fill="#496B7B" />
    <rect x="21" y="140" width="10" height="10" fill="#496B7B" />
    <rect x="181" y="20" width="10" height="10" fill="#496B7B" />
    <rect x="301" y="20" width="10" height="10" fill="#496B7B" />
    <rect x="301" y="140" width="10" height="10" fill="#496B7B" />
    <rect x="181" y="140" width="10" height="10" fill="#496B7B" />
    <rect x="341" y="20" width="10" height="10" fill="#496B7B" />
    <rect x="461" y="20" width="10" height="10" fill="#496B7B" />
    <rect x="461" y="140" width="10" height="10" fill="#496B7B" />
    <rect x="461" y="180" width="10" height="10" fill="#496B7B" />
    <rect x="461" y="300" width="10" height="10" fill="#496B7B" />
    <rect x="341" y="300" width="10" height="10" fill="#496B7B" />
    <rect x="341" y="180" width="10" height="10" fill="#496B7B" />
    <rect x="301" y="180" width="10" height="10" fill="#496B7B" />
    <rect x="181" y="180" width="10" height="10" fill="#496B7B" />
    <rect x="181" y="300" width="10" height="10" fill="#496B7B" />
    <rect x="301" y="300" width="10" height="10" fill="#496B7B" />
    <rect x="141" y="300" width="10" height="10" fill="#496B7B" />
    <rect x="141" y="180" width="10" height="10" fill="#496B7B" />
    <rect x="21" y="180" width="10" height="10" fill="#496B7B" />
    <rect x="21" y="300" width="10" height="10" fill="#496B7B" />
    <rect x="21" y="340" width="10" height="10" fill="#496B7B" />
    <rect x="141" y="340" width="10" height="10" fill="#496B7B" />
    <rect x="141" y="460" width="10" height="10" fill="#496B7B" />
    <rect x="21" y="460" width="10" height="10" fill="#496B7B" />
    <rect x="181" y="340" width="10" height="10" fill="#496B7B" />
    <rect x="181" y="460" width="10" height="10" fill="#496B7B" />
    <rect x="301" y="460" width="10" height="10" fill="#496B7B" />
    <rect x="301" y="340" width="10" height="10" fill="#496B7B" />
    <rect x="341" y="340" width="10" height="10" fill="#496B7B" />
    <rect x="341" y="460" width="10" height="10" fill="#496B7B" />
    <rect x="461" y="460" width="10" height="10" fill="#496B7B" />
    <rect x="461" y="340" width="10" height="10" fill="#496B7B" />
    <rect x="341" y="140" width="10" height="10" fill="#496B7B" />
    <path d="M200 0L290 0V200H490V290H290V490H200V290H0L0 200H200V0Z" fill="#656361" />
    <path d="M210 0L280 0V210H490V280H280V490H210V280H0L0 210H210V0Z" fill="#767472" />
    <rect x="181" y="180" width="130" height="130" fill="#212121" />
    <rect x="191" y="190" width="110" height="110" fill="white" fill-opacity="0.2" />
    <rect x="40" y="250" width="10" height="10" transform="rotate(-90 40 250)" fill="#545250" />
    <rect x="30" y="240" width="10" height="10" transform="rotate(-90 30 240)" fill="#545250" />
    <rect x="20" y="270" width="10" height="10" transform="rotate(-90 20 270)" fill="#545250" />
    <rect x="30" y="260" width="10" height="10" transform="rotate(-90 30 260)" fill="#545250" />
    <rect x="20" y="230" width="10" height="10" transform="rotate(-90 20 230)" fill="#545250" />
    <rect x="450" y="240" width="10" height="10" transform="rotate(90 450 240)" fill="#545250" />
    <rect x="460" y="250" width="10" height="10" transform="rotate(90 460 250)" fill="#545250" />
    <rect x="470" y="220" width="10" height="10" transform="rotate(90 470 220)" fill="#545250" />
    <rect x="460" y="230" width="10" height="10" transform="rotate(90 460 230)" fill="#545250" />
    <rect x="470" y="260" width="10" height="10" transform="rotate(90 470 260)" fill="#545250" />
    <rect x="240" y="460" width="10" height="10" fill="#545250" />
    <rect x="250" y="450" width="10" height="10" fill="#545250" />
    <rect x="220" y="440" width="10" height="10" fill="#545250" />
    <rect x="230" y="450" width="10" height="10" fill="#545250" />
    <rect x="260" y="440" width="10" height="10" fill="#545250" />
    <rect x="229" y="30" width="10" height="10" fill="#545250" />
    <rect x="219" y="20" width="10" height="10" fill="#545250" />
    <rect x="259" y="20" width="10" height="10" fill="#545250" />
    <rect x="249" y="30" width="10" height="10" fill="#545250" />
    <rect x="239" y="40" width="10" height="10" fill="#545250" />
    <rect x="241" y="250" width="10" height="10" fill="#04961C" />
    <rect x="251" y="240" width="10" height="10" fill="#04961C" />
    <rect x="221" y="230" width="10" height="10" fill="#04961C" />
    <rect x="231" y="240" width="10" height="10" fill="#04961C" />
    <rect x="261" y="230" width="10" height="10" fill="#04961C" />
</svg>
