<svg viewBox="0 0 490 490" fill="none" xmlns="http://www.w3.org/2000/svg">
    <rect width="490" height="490" fill="#656361" />
    <rect x="11" y="10" width="150" height="150" fill="#CECCCC" />
    <rect x="171" y="10" width="150" height="150" fill="#CECCCC" />
    <rect x="331" y="10" width="150" height="150" fill="#CECCCC" />
    <rect x="331" y="170" width="150" height="150" fill="#CECCCC" />
    <rect x="171" y="170" width="150" height="150" fill="#CECCCC" />
    <rect x="11" y="170" width="150" height="150" fill="#CECCCC" />
    <rect x="11" y="330" width="150" height="150" fill="#CECCCC" />
    <rect x="171" y="330" width="150" height="150" fill="#CECCCC" />
    <rect x="331" y="330" width="150" height="150" fill="#CECCCC" />
    <rect x="21" y="20" width="10" height="10" fill="#496B7B" />
    <rect x="141" y="20" width="10" height="10" fill="#496B7B" />
    <rect x="141" y="140" width="10" height="10" fill="#496B7B" />
    <rect x="21" y="140" width="10" height="10" fill="#496B7B" />
    <rect x="181" y="20" width="10" height="10" fill="#496B7B" />
    <rect x="301" y="20" width="10" height="10" fill="#496B7B" />
    <rect x="301" y="140" width="10" height="10" fill="#496B7B" />
    <rect x="181" y="140" width="10" height="10" fill="#496B7B" />
    <rect x="341" y="20" width="10" height="10" fill="#496B7B" />
    <rect x="461" y="20" width="10" height="10" fill="#496B7B" />
    <rect x="461" y="140" width="10" height="10" fill="#496B7B" />
    <rect x="461" y="180" width="10" height="10" fill="#496B7B" />
    <rect x="461" y="300" width="10" height="10" fill="#496B7B" />
    <rect x="341" y="300" width="10" height="10" fill="#496B7B" />
    <rect x="341" y="180" width="10" height="10" fill="#496B7B" />
    <rect x="301" y="180" width="10" height="10" fill="#496B7B" />
    <rect x="181" y="180" width="10" height="10" fill="#496B7B" />
    <rect x="181" y="300" width="10" height="10" fill="#496B7B" />
    <rect x="301" y="300" width="10" height="10" fill="#496B7B" />
    <rect x="141" y="300" width="10" height="10" fill="#496B7B" />
    <rect x="141" y="180" width="10" height="10" fill="#496B7B" />
    <rect x="21" y="180" width="10" height="10" fill="#496B7B" />
    <rect x="21" y="300" width="10" height="10" fill="#496B7B" />
    <rect x="21" y="340" width="10" height="10" fill="#496B7B" />
    <rect x="141" y="340" width="10" height="10" fill="#496B7B" />
    <rect x="141" y="460" width="10" height="10" fill="#496B7B" />
    <rect x="21" y="460" width="10" height="10" fill="#496B7B" />
    <rect x="181" y="340" width="10" height="10" fill="#496B7B" />
    <rect x="181" y="460" width="10" height="10" fill="#496B7B" />
    <rect x="301" y="460" width="10" height="10" fill="#496B7B" />
    <rect x="301" y="340" width="10" height="10" fill="#496B7B" />
    <rect x="341" y="340" width="10" height="10" fill="#496B7B" />
    <rect x="341" y="460" width="10" height="10" fill="#496B7B" />
    <rect x="461" y="460" width="10" height="10" fill="#496B7B" />
    <rect x="461" y="340" width="10" height="10" fill="#496B7B" />
    <rect x="341" y="140" width="10" height="10" fill="#496B7B" />
    <rect x="201" width="90" height="490" fill="#656361" />
    <rect x="211" width="70" height="490" fill="#767472" />
    <rect x="241" y="460" width="10" height="10" fill="#545250" />
    <rect x="251" y="450" width="10" height="10" fill="#545250" />
    <rect x="221" y="440" width="10" height="10" fill="#545250" />
    <rect x="231" y="450" width="10" height="10" fill="#545250" />
    <rect x="261" y="440" width="10" height="10" fill="#545250" />
    <rect x="230" y="30" width="10" height="10" fill="#545250" />
    <rect x="220" y="20" width="10" height="10" fill="#545250" />
    <rect x="260" y="20" width="10" height="10" fill="#545250" />
    <rect x="250" y="30" width="10" height="10" fill="#545250" />
    <rect x="240" y="40" width="10" height="10" fill="#545250" />
    <rect x="140" y="140" width="210" height="210" stroke="#656361" stroke-width="10" />
    <rect x="145" y="145" width="200" height="200" fill="#8E8E8E" />
    <rect x="180" y="180" width="130" height="130" stroke="#383838" stroke-width="10" />
    <rect x="185" y="185" width="120" height="120" fill="#B04242" />
    <rect x="216" y="195" width="60" height="10" fill="black" fill-opacity="0.4" />
    <rect x="286" y="195" width="10" height="10" fill="black" fill-opacity="0.7" />
    <rect x="196" y="195" width="10" height="10" fill="#351414" />
    <rect x="196" y="225" width="100" height="10" fill="black" fill-opacity="0.4" />
    <rect x="196" y="245" width="100" height="10" fill="black" fill-opacity="0.4" />
    <rect x="196" y="265" width="100" height="10" fill="black" fill-opacity="0.4" />
    <rect x="216" y="285" width="60" height="10" fill="black" fill-opacity="0.4" />
    <rect x="196" y="285" width="10" height="10" fill="#351414" />
    <rect x="286" y="285" width="10" height="10" fill="#351414" />
</svg>
