<svg width="490" height="490" viewBox="0 0 490 490" fill="none" xmlns="http://www.w3.org/2000/svg">
<rect width="490" height="490" fill="#5F5E5E"/>
<rect x="10" y="10" width="150" height="150" fill="#E3E1E1"/>
<rect x="170" y="10" width="150" height="150" fill="#E3E1E1"/>
<rect x="330" y="10" width="150" height="150" fill="#E3E1E1"/>
<rect x="330" y="170" width="150" height="150" fill="#E3E1E1"/>
<rect x="170" y="170" width="150" height="150" fill="#E3E1E1"/>
<rect x="10" y="170" width="150" height="150" fill="#E3E1E1"/>
<rect x="10" y="330" width="150" height="150" fill="#E3E1E1"/>
<rect x="170" y="330" width="150" height="150" fill="#E3E1E1"/>
<rect x="330" y="330" width="150" height="150" fill="#E3E1E1"/>
<rect x="20" y="20" width="10" height="10" fill="#4B7C93"/>
<rect x="140" y="20" width="10" height="10" fill="#4B7C93"/>
<rect x="140" y="140" width="10" height="10" fill="#4B7C93"/>
<rect x="20" y="140" width="10" height="10" fill="#4B7C93"/>
<rect x="180" y="20" width="10" height="10" fill="#4B7C93"/>
<rect x="300" y="20" width="10" height="10" fill="#4B7C93"/>
<rect x="300" y="140" width="10" height="10" fill="#4B7C93"/>
<rect x="180" y="140" width="10" height="10" fill="#4B7C93"/>
<rect x="340" y="20" width="10" height="10" fill="#4B7C93"/>
<rect x="460" y="20" width="10" height="10" fill="#4B7C93"/>
<rect x="460" y="140" width="10" height="10" fill="#4B7C93"/>
<rect x="460" y="180" width="10" height="10" fill="#4B7C93"/>
<rect x="460" y="300" width="10" height="10" fill="#4B7C93"/>
<rect x="340" y="300" width="10" height="10" fill="#4B7C93"/>
<rect x="340" y="180" width="10" height="10" fill="#4B7C93"/>
<rect x="300" y="180" width="10" height="10" fill="#4B7C93"/>
<rect x="180" y="180" width="10" height="10" fill="#4B7C93"/>
<rect x="180" y="300" width="10" height="10" fill="#4B7C93"/>
<rect x="300" y="300" width="10" height="10" fill="#4B7C93"/>
<rect x="140" y="300" width="10" height="10" fill="#4B7C93"/>
<rect x="140" y="180" width="10" height="10" fill="#4B7C93"/>
<rect x="20" y="180" width="10" height="10" fill="#4B7C93"/>
<rect x="20" y="300" width="10" height="10" fill="#4B7C93"/>
<rect x="20" y="340" width="10" height="10" fill="#4B7C93"/>
<rect x="140" y="340" width="10" height="10" fill="#4B7C93"/>
<rect x="140" y="460" width="10" height="10" fill="#4B7C93"/>
<rect x="20" y="460" width="10" height="10" fill="#4B7C93"/>
<rect x="180" y="340" width="10" height="10" fill="#4B7C93"/>
<rect x="180" y="460" width="10" height="10" fill="#4B7C93"/>
<rect x="300" y="460" width="10" height="10" fill="#4B7C93"/>
<rect x="300" y="340" width="10" height="10" fill="#4B7C93"/>
<rect x="340" y="340" width="10" height="10" fill="#4B7C93"/>
<rect x="340" y="460" width="10" height="10" fill="#4B7C93"/>
<rect x="460" y="460" width="10" height="10" fill="#4B7C93"/>
<rect x="460" y="340" width="10" height="10" fill="#4B7C93"/>
<rect x="340" y="140" width="10" height="10" fill="#4B7C93"/>
</svg>
