<svg viewBox="0 0 490 490" fill="none" xmlns="http://www.w3.org/2000/svg">
    <rect width="490" height="490" fill="#656361"/>
    <rect x="11" y="10" width="150" height="150" fill="#CECCCC"/>
    <rect x="171" y="10" width="150" height="150" fill="#CECCCC"/>
    <rect x="331" y="10" width="150" height="150" fill="#CECCCC"/>
    <rect x="331" y="170" width="150" height="150" fill="#CECCCC"/>
    <rect x="171" y="170" width="150" height="150" fill="#CECCCC"/>
    <rect x="11" y="170" width="150" height="150" fill="#CECCCC"/>
    <rect x="11" y="330" width="150" height="150" fill="#CECCCC"/>
    <rect x="171" y="330" width="150" height="150" fill="#CECCCC"/>
    <rect x="331" y="330" width="150" height="150" fill="#CECCCC"/>
    <rect x="21" y="20" width="10" height="10" fill="#496B7B"/>
    <rect x="141" y="20" width="10" height="10" fill="#496B7B"/>
    <rect x="141" y="140" width="10" height="10" fill="#496B7B"/>
    <rect x="21" y="140" width="10" height="10" fill="#496B7B"/>
    <rect x="181" y="20" width="10" height="10" fill="#496B7B"/>
    <rect x="301" y="20" width="10" height="10" fill="#496B7B"/>
    <rect x="301" y="140" width="10" height="10" fill="#496B7B"/>
    <rect x="181" y="140" width="10" height="10" fill="#496B7B"/>
    <rect x="341" y="20" width="10" height="10" fill="#496B7B"/>
    <rect x="461" y="20" width="10" height="10" fill="#496B7B"/>
    <rect x="461" y="140" width="10" height="10" fill="#496B7B"/>
    <rect x="461" y="180" width="10" height="10" fill="#496B7B"/>
    <rect x="461" y="300" width="10" height="10" fill="#496B7B"/>
    <rect x="341" y="300" width="10" height="10" fill="#496B7B"/>
    <rect x="341" y="180" width="10" height="10" fill="#496B7B"/>
    <rect x="301" y="180" width="10" height="10" fill="#496B7B"/>
    <rect x="181" y="180" width="10" height="10" fill="#496B7B"/>
    <rect x="181" y="300" width="10" height="10" fill="#496B7B"/>
    <rect x="301" y="300" width="10" height="10" fill="#496B7B"/>
    <rect x="141" y="300" width="10" height="10" fill="#496B7B"/>
    <rect x="141" y="180" width="10" height="10" fill="#496B7B"/>
    <rect x="21" y="180" width="10" height="10" fill="#496B7B"/>
    <rect x="21" y="300" width="10" height="10" fill="#496B7B"/>
    <rect x="21" y="340" width="10" height="10" fill="#496B7B"/>
    <rect x="141" y="340" width="10" height="10" fill="#496B7B"/>
    <rect x="141" y="460" width="10" height="10" fill="#496B7B"/>
    <rect x="21" y="460" width="10" height="10" fill="#496B7B"/>
    <rect x="181" y="340" width="10" height="10" fill="#496B7B"/>
    <rect x="181" y="460" width="10" height="10" fill="#496B7B"/>
    <rect x="301" y="460" width="10" height="10" fill="#496B7B"/>
    <rect x="301" y="340" width="10" height="10" fill="#496B7B"/>
    <rect x="341" y="340" width="10" height="10" fill="#496B7B"/>
    <rect x="341" y="460" width="10" height="10" fill="#496B7B"/>
    <rect x="461" y="460" width="10" height="10" fill="#496B7B"/>
    <rect x="461" y="340" width="10" height="10" fill="#496B7B"/>
    <rect x="341" y="140" width="10" height="10" fill="#496B7B"/>
    <path d="M200 0H290V200H490V290H200V0Z" fill="#656361"/>
    <path d="M210 0H280V210H490V280H210V0Z" fill="#767472"/>
    <rect x="460" y="250" width="10" height="10" transform="rotate(-90 460 250)" fill="#545250"/>
    <rect x="450" y="240" width="10" height="10" transform="rotate(-90 450 240)" fill="#545250"/>
    <rect x="440" y="270" width="10" height="10" transform="rotate(-90 440 270)" fill="#545250"/>
    <rect x="450" y="260" width="10" height="10" transform="rotate(-90 450 260)" fill="#545250"/>
    <rect x="440" y="230" width="10" height="10" transform="rotate(-90 440 230)" fill="#545250"/>
    <rect x="229" y="30" width="10" height="10" fill="#545250"/>
    <rect x="219" y="20" width="10" height="10" fill="#545250"/>
    <rect x="259" y="20" width="10" height="10" fill="#545250"/>
    <rect x="249" y="30" width="10" height="10" fill="#545250"/>
    <rect x="239" y="40" width="10" height="10" fill="#545250"/>
</svg>