<svg viewBox="0 0 490 490" fill="none" xmlns="http://www.w3.org/2000/svg">
    <rect width="490" height="490" fill="#656361" />
    <rect x="11" y="10.0002" width="150" height="150" fill="#CECCCC" />
    <rect x="171" y="10.0002" width="150" height="150" fill="#CECCCC" />
    <rect x="331" y="10.0002" width="150" height="150" fill="#CECCCC" />
    <rect x="331" y="170" width="150" height="150" fill="#CECCCC" />
    <rect x="171" y="170" width="150" height="150" fill="#CECCCC" />
    <rect x="11" y="170" width="150" height="150" fill="#CECCCC" />
    <rect x="11" y="330" width="150" height="150" fill="#CECCCC" />
    <rect x="171" y="330" width="150" height="150" fill="#CECCCC" />
    <rect x="331" y="330" width="150" height="150" fill="#CECCCC" />
    <rect x="21" y="19.9999" width="10" height="10" fill="#496B7B" />
    <rect x="141" y="19.9999" width="10" height="10" fill="#496B7B" />
    <rect x="141" y="140" width="10" height="10" fill="#496B7B" />
    <rect x="21" y="140" width="10" height="10" fill="#496B7B" />
    <rect x="181" y="19.9999" width="10" height="10" fill="#496B7B" />
    <rect x="301" y="19.9999" width="10" height="10" fill="#496B7B" />
    <rect x="301" y="140" width="10" height="10" fill="#496B7B" />
    <rect x="181" y="140" width="10" height="10" fill="#496B7B" />
    <rect x="341" y="19.9999" width="10" height="10" fill="#496B7B" />
    <rect x="461" y="19.9999" width="10" height="10" fill="#496B7B" />
    <rect x="461" y="140" width="10" height="10" fill="#496B7B" />
    <rect x="461" y="180" width="10" height="10" fill="#496B7B" />
    <rect x="461" y="300" width="10" height="10" fill="#496B7B" />
    <rect x="341" y="300" width="10" height="10" fill="#496B7B" />
    <rect x="341" y="180" width="10" height="10" fill="#496B7B" />
    <rect x="301" y="180" width="10" height="10" fill="#496B7B" />
    <rect x="181" y="180" width="10" height="10" fill="#496B7B" />
    <rect x="181" y="300" width="10" height="10" fill="#496B7B" />
    <rect x="301" y="300" width="10" height="10" fill="#496B7B" />
    <rect x="141" y="300" width="10" height="10" fill="#496B7B" />
    <rect x="141" y="180" width="10" height="10" fill="#496B7B" />
    <rect x="21" y="180" width="10" height="10" fill="#496B7B" />
    <rect x="21" y="300" width="10" height="10" fill="#496B7B" />
    <rect x="21" y="340" width="10" height="10" fill="#496B7B" />
    <rect x="141" y="340" width="10" height="10" fill="#496B7B" />
    <rect x="141" y="460" width="10" height="10" fill="#496B7B" />
    <rect x="21" y="460" width="10" height="10" fill="#496B7B" />
    <rect x="181" y="340" width="10" height="10" fill="#496B7B" />
    <rect x="181" y="460" width="10" height="10" fill="#496B7B" />
    <rect x="301" y="460" width="10" height="10" fill="#496B7B" />
    <rect x="301" y="340" width="10" height="10" fill="#496B7B" />
    <rect x="341" y="340" width="10" height="10" fill="#496B7B" />
    <rect x="341" y="460" width="10" height="10" fill="#496B7B" />
    <rect x="461" y="460" width="10" height="10" fill="#496B7B" />
    <rect x="461" y="340" width="10" height="10" fill="#496B7B" />
    <rect x="341" y="140" width="10" height="10" fill="#496B7B" />
    <rect x="200" width="90" height="490" fill="#656361" />
    <rect x="210" width="70" height="490" fill="#767472" />
    <rect x="239" y="460" width="10" height="10" fill="#545250" />
    <rect x="249" y="450" width="10" height="10" fill="#545250" />
    <rect x="219" y="440" width="10" height="10" fill="#545250" />
    <rect x="229" y="450" width="10" height="10" fill="#545250" />
    <rect x="259" y="440" width="10" height="10" fill="#545250" />
    <rect x="229" y="30" width="10" height="10" fill="#545250" />
    <rect x="219" y="20" width="10" height="10" fill="#545250" />
    <rect x="259" y="20" width="10" height="10" fill="#545250" />
    <rect x="249" y="30" width="10" height="10" fill="#545250" />
    <rect x="239" y="40" width="10" height="10" fill="#545250" />
    <rect y="90.0001" width="490" height="400" fill="#8E8E8E" />
    <path d="M165 212H175V272H335V392H325V282H165V212Z" fill="#33691E" />
    <rect x="155" y="192" width="180" height="10" fill="#33691E" />
    <rect x="155" y="372" width="170" height="10" fill="#33691E" />
    <rect x="201" y="160" width="10" height="270" fill="#64DD17" />
    <rect x="268" y="160" width="10" height="270" fill="#64DD17" />
    <rect x="211" y="160" width="10" height="270" fill="#33691E" />
    <rect x="278" y="160" width="10" height="270" fill="#33691E" />
    <path d="M155 202H335V212H165V282H325V392H155V382H316V292H155V202Z" fill="#64DD17" />
    <rect x="16" y="105" width="460" height="370" stroke="#33691E" stroke-width="10" />
    <path fill-rule="evenodd" clip-rule="evenodd" d="M490 90H0V490H490V90ZM481 99.9998H11V480H481V99.9998Z" fill="#212121" />
    <rect x="200" y="90.0001" width="90" height="10" fill="#494949" />
</svg>
