<svg viewBox="0 0 490 490" fill="none" xmlns="http://www.w3.org/2000/svg">
    <rect width="490" height="490" fill="#656361" />
    <rect x="11" y="10" width="150" height="150" fill="#CECCCC" />
    <rect x="171" y="10" width="150" height="150" fill="#CECCCC" />
    <rect x="331" y="10" width="150" height="150" fill="#CECCCC" />
    <rect x="331" y="170" width="150" height="150" fill="#CECCCC" />
    <rect x="171" y="170" width="150" height="150" fill="#CECCCC" />
    <rect x="11" y="170" width="150" height="150" fill="#CECCCC" />
    <rect x="11" y="330" width="150" height="150" fill="#CECCCC" />
    <rect x="171" y="330" width="150" height="150" fill="#CECCCC" />
    <rect x="331" y="330" width="150" height="150" fill="#CECCCC" />
    <rect x="21" y="20" width="10" height="10" fill="#496B7B" />
    <rect x="141" y="20" width="10" height="10" fill="#496B7B" />
    <rect x="141" y="140" width="10" height="10" fill="#496B7B" />
    <rect x="21" y="140" width="10" height="10" fill="#496B7B" />
    <rect x="181" y="20" width="10" height="10" fill="#496B7B" />
    <rect x="301" y="20" width="10" height="10" fill="#496B7B" />
    <rect x="301" y="140" width="10" height="10" fill="#496B7B" />
    <rect x="181" y="140" width="10" height="10" fill="#496B7B" />
    <rect x="341" y="20" width="10" height="10" fill="#496B7B" />
    <rect x="461" y="20" width="10" height="10" fill="#496B7B" />
    <rect x="461" y="140" width="10" height="10" fill="#496B7B" />
    <rect x="461" y="180" width="10" height="10" fill="#496B7B" />
    <rect x="461" y="300" width="10" height="10" fill="#496B7B" />
    <rect x="341" y="300" width="10" height="10" fill="#496B7B" />
    <rect x="341" y="180" width="10" height="10" fill="#496B7B" />
    <rect x="301" y="180" width="10" height="10" fill="#496B7B" />
    <rect x="181" y="180" width="10" height="10" fill="#496B7B" />
    <rect x="181" y="300" width="10" height="10" fill="#496B7B" />
    <rect x="301" y="300" width="10" height="10" fill="#496B7B" />
    <rect x="141" y="300" width="10" height="10" fill="#496B7B" />
    <rect x="141" y="180" width="10" height="10" fill="#496B7B" />
    <rect x="21" y="180" width="10" height="10" fill="#496B7B" />
    <rect x="21" y="300" width="10" height="10" fill="#496B7B" />
    <rect x="21" y="340" width="10" height="10" fill="#496B7B" />
    <rect x="141" y="340" width="10" height="10" fill="#496B7B" />
    <rect x="141" y="460" width="10" height="10" fill="#496B7B" />
    <rect x="21" y="460" width="10" height="10" fill="#496B7B" />
    <rect x="181" y="340" width="10" height="10" fill="#496B7B" />
    <rect x="181" y="460" width="10" height="10" fill="#496B7B" />
    <rect x="301" y="460" width="10" height="10" fill="#496B7B" />
    <rect x="301" y="340" width="10" height="10" fill="#496B7B" />
    <rect x="341" y="340" width="10" height="10" fill="#496B7B" />
    <rect x="341" y="460" width="10" height="10" fill="#496B7B" />
    <rect x="461" y="460" width="10" height="10" fill="#496B7B" />
    <rect x="461" y="340" width="10" height="10" fill="#496B7B" />
    <rect x="341" y="140" width="10" height="10" fill="#496B7B" />
    <rect x="201" width="90" height="490" fill="#656361" />
    <rect x="211" width="70" height="490" fill="#767472" />
    <rect x="241" y="460" width="10" height="10" fill="#545250" />
    <rect x="251" y="450" width="10" height="10" fill="#545250" />
    <rect x="221" y="440" width="10" height="10" fill="#545250" />
    <rect x="231" y="450" width="10" height="10" fill="#545250" />
    <rect x="261" y="440" width="10" height="10" fill="#545250" />
    <rect x="230" y="30" width="10" height="10" fill="#545250" />
    <rect x="220" y="20" width="10" height="10" fill="#545250" />
    <rect x="260" y="20" width="10" height="10" fill="#545250" />
    <rect x="250" y="30" width="10" height="10" fill="#545250" />
    <rect x="240" y="40" width="10" height="10" fill="#545250" />
    <rect x="140" y="140" width="210" height="210" stroke="#656361" stroke-width="10" />
    <rect x="145" y="145" width="200" height="200" fill="#8E8E8E" />
    <rect x="180" y="180" width="130" height="130" stroke="#383838" stroke-width="10" />
    <rect x="225" y="185" width="40" height="120" fill="#656361" />
    <rect x="235" y="185" width="20" height="120" fill="#767472" />
    <path d="M225 250V240V230H215V240H185V250H215V260H225V250Z" fill="#656361" />
    <path d="M265 240V250V260H275V250H305V240H275V230H265V240Z" fill="#656361" />
    <path d="M220 210V225H210V235H190V230H205V220H210.5H215V210H220Z" fill="#0C71E9" />
    <path d="M220 280V265H210V255H190V260H205V270H210.5H215V280H220Z" fill="#0C71E9" />
    <path d="M270 210V225H280V235H300V230H285V220H279.5H275V210H270Z" fill="#0C71E9" />
    <path d="M270 280V265H280V255H300V260H285V270H279.5H275V280H270Z" fill="#0C71E9" />
    <rect x="185" y="185" width="120" height="120" fill="#0A3DF0" fill-opacity="0.4" />
    <path d="M235 195H225V205H215V215H205V225H195V235H205V225H215V215H225V205H235V195Z" fill="white" fill-opacity="0.7" />
    <path d="M295 255H285V265H275V275H265V285H255V295H265V285H275V275H285V265H295V255Z" fill="white" fill-opacity="0.7" />
    <path d="M265 225H255V235H245V245H235V255H225V265H235V255H245V245H255V235H265V225Z" fill="white" fill-opacity="0.7" />
</svg>
