<svg width="490" height="490" viewBox="0 0 490 490" fill="none" xmlns="http://www.w3.org/2000/svg">
<rect width="490" height="490" fill="#656361"/>
<rect x="11" y="10" width="150" height="150" fill="#CECCCC"/>
<rect x="171" y="10" width="150" height="150" fill="#CECCCC"/>
<rect x="331" y="10" width="150" height="150" fill="#CECCCC"/>
<rect x="331" y="170" width="150" height="150" fill="#CECCCC"/>
<rect x="171" y="170" width="150" height="150" fill="#CECCCC"/>
<rect x="11" y="170" width="150" height="150" fill="#CECCCC"/>
<rect x="11" y="330" width="150" height="150" fill="#CECCCC"/>
<rect x="171" y="330" width="150" height="150" fill="#CECCCC"/>
<rect x="331" y="330" width="150" height="150" fill="#CECCCC"/>
<rect x="21" y="20" width="10" height="10" fill="#496B7B"/>
<rect x="141" y="20" width="10" height="10" fill="#496B7B"/>
<rect x="141" y="140" width="10" height="10" fill="#496B7B"/>
<rect x="21" y="140" width="10" height="10" fill="#496B7B"/>
<rect x="181" y="20" width="10" height="10" fill="#496B7B"/>
<rect x="301" y="20" width="10" height="10" fill="#496B7B"/>
<rect x="301" y="140" width="10" height="10" fill="#496B7B"/>
<rect x="181" y="140" width="10" height="10" fill="#496B7B"/>
<rect x="341" y="20" width="10" height="10" fill="#496B7B"/>
<rect x="461" y="20" width="10" height="10" fill="#496B7B"/>
<rect x="461" y="140" width="10" height="10" fill="#496B7B"/>
<rect x="461" y="180" width="10" height="10" fill="#496B7B"/>
<rect x="461" y="300" width="10" height="10" fill="#496B7B"/>
<rect x="341" y="300" width="10" height="10" fill="#496B7B"/>
<rect x="341" y="180" width="10" height="10" fill="#496B7B"/>
<rect x="301" y="180" width="10" height="10" fill="#496B7B"/>
<rect x="181" y="180" width="10" height="10" fill="#496B7B"/>
<rect x="181" y="300" width="10" height="10" fill="#496B7B"/>
<rect x="301" y="300" width="10" height="10" fill="#496B7B"/>
<rect x="141" y="300" width="10" height="10" fill="#496B7B"/>
<rect x="141" y="180" width="10" height="10" fill="#496B7B"/>
<rect x="21" y="180" width="10" height="10" fill="#496B7B"/>
<rect x="21" y="300" width="10" height="10" fill="#496B7B"/>
<rect x="21" y="340" width="10" height="10" fill="#496B7B"/>
<rect x="141" y="340" width="10" height="10" fill="#496B7B"/>
<rect x="141" y="460" width="10" height="10" fill="#496B7B"/>
<rect x="21" y="460" width="10" height="10" fill="#496B7B"/>
<rect x="181" y="340" width="10" height="10" fill="#496B7B"/>
<rect x="181" y="460" width="10" height="10" fill="#496B7B"/>
<rect x="301" y="460" width="10" height="10" fill="#496B7B"/>
<rect x="301" y="340" width="10" height="10" fill="#496B7B"/>
<rect x="341" y="340" width="10" height="10" fill="#496B7B"/>
<rect x="341" y="460" width="10" height="10" fill="#496B7B"/>
<rect x="461" y="460" width="10" height="10" fill="#496B7B"/>
<rect x="461" y="340" width="10" height="10" fill="#496B7B"/>
<rect x="341" y="140" width="10" height="10" fill="#496B7B"/>
</svg>
